# xmcd
# 
# Track frame offsets:
#     150
#     16874
#     33991
#     52756
#     68789
#     96422
#     116109
#     134897
#     159212
#     178506
#     200112
#     218075
# 
# Disc length: 3286
# 
# Revision: 1
# Processed by: cddbd v1.5.2PL0 Copyright (c) Steve Scherf et al.
# Submitted via: fre:ac v1.0.31
# 
DISCID=a80cd40c
DTITLE=Ace Frehley - Anomaly
DYEAR=2009
DGENRE=Rock/Pop
TTITLE0=Foxy and Free
TTITLE1=Outer Space
TTITLE2=Pain In The Neck
TTITLE3=Fox On The Run
TTITLE4=Genghis Khan
TTITLE5=Too Many Faces
TTITLE6=Change The World
TTITLE7=Space Bear
TTITLE8=A Little Below The Angels
TTITLE9=Sister
TTITLE10=It's A Great Life
TTITLE11=Fractured Quantum
EXTD=
EXTT0=
EXTT1=
EXTT2=
EXTT3=
EXTT4=
EXTT5=
EXTT6=
EXTT7=
EXTT8=
EXTT9=
EXTT10=
EXTT11=
PLAYORDER=
